<svg width="48" height="48" viewBox="0 0 48 48" fill="none" xmlns="http://www.w3.org/2000/svg">
<path d="M24.3201 14.1867C27.3246 14.1867 29.3512 15.4844 30.5068 16.5689L35.0224 12.16C32.249 9.58222 28.6401 8 24.3201 8C18.0624 8 12.6579 11.5911 10.0268 16.8178L15.2001 20.8356C16.4979 16.9778 20.089 14.1867 24.3201 14.1867Z" fill="#EA4335"/>
<path d="M39.6799 24.3556C39.6799 23.04 39.5732 22.08 39.3421 21.0845H24.3199V27.0223H33.1377C32.9599 28.4978 31.9999 30.72 29.8666 32.2134L34.9155 36.1245C37.9377 33.3334 39.6799 29.2267 39.6799 24.3556Z" fill="#4285F4"/>
<path d="M15.2178 27.1644C14.8801 26.1689 14.6845 25.1022 14.6845 24C14.6845 22.8977 14.8801 21.8311 15.2001 20.8355L10.0267 16.8177C8.94229 18.9866 8.32007 21.4222 8.32007 24C8.32007 26.5777 8.94229 29.0133 10.0267 31.1822L15.2178 27.1644Z" fill="#FBBC05"/>
<path d="M24.3204 40C28.6404 40 32.2671 38.5778 34.9159 36.1244L29.8671 32.2133C28.5159 33.1555 26.7026 33.8133 24.3204 33.8133C20.0893 33.8133 16.4982 31.0222 15.2182 27.1644L10.0448 31.1822C12.6759 36.4089 18.0626 40 24.3204 40Z" fill="#34A853"/>
</svg>
