<svg width="48" height="48" viewBox="0 0 48 48" fill="none" xmlns="http://www.w3.org/2000/svg">
<path d="M25.4305 6.11914L28.1722 12.3774V34.1324L25.4901 41.8807L35.6821 38.9602C37.2318 38.4834 38.3047 37.0529 38.3047 35.4436V12.4966C38.3047 10.8874 37.2318 9.45689 35.6821 8.98007L25.4305 6.11914Z" fill="url(#paint0_linear_400_393)"/>
<path d="M12.4967 33.894L15.4768 32.2848C16.3113 31.8079 16.8477 30.9735 16.8477 30.0199V18.2781C16.8477 17.2053 17.5629 16.1921 18.5762 15.8344L28.1722 12.3775V9.75497C28.1722 8.08609 27.0397 6.59603 25.4305 6.11921C25.0729 6 24.7748 6 24.4172 6C23.7616 6 23.106 6.17881 22.5695 6.47682L11.5431 12.7351C10.4106 13.3907 9.69537 14.5828 9.69537 15.894V32.2252C9.69537 33.298 10.5298 34.1325 11.6027 34.1325C11.9007 34.1325 12.2583 34.0728 12.4967 33.894Z" fill="url(#paint1_linear_400_393)"/>
<path d="M28.1722 34.1324H16.7881C15.7152 34.1324 14.8808 35.0265 14.8808 36.0397C14.8808 36.6954 15.2384 37.351 15.8344 37.7086L22.6291 41.5232C23.1656 41.8212 23.8212 42 24.4768 42C24.8344 42 25.1921 41.9404 25.4901 41.8808C27.0993 41.404 28.1722 39.9735 28.1722 38.3046V34.1324Z" fill="url(#paint2_linear_400_393)"/>
<path d="M12.4967 33.894L15.4768 32.2848C16.3113 31.8079 16.8477 30.9735 16.8477 30.0199V18.2781C16.8477 17.2053 17.5629 16.1921 18.5762 15.8344L28.1722 12.3775V9.75497C28.1722 8.08609 27.0397 6.59603 25.4305 6.11921C25.0729 6 24.7748 6 24.4172 6C23.7616 6 23.106 6.17881 22.5695 6.47682L11.5431 12.7351C10.4106 13.3907 9.69537 14.5828 9.69537 15.894V32.2252C9.69537 33.298 10.5298 34.1325 11.6027 34.1325C11.9007 34.1325 12.2583 34.0728 12.4967 33.894Z" fill="url(#paint3_linear_400_393)"/>
<path d="M28.1722 34.1324H16.7881C15.7152 34.1324 14.8808 35.0265 14.8808 36.0397C14.8808 36.6954 15.2384 37.351 15.8344 37.7086L22.6291 41.5232C23.1656 41.8212 23.8212 42 24.4768 42C24.8344 42 25.1921 41.9404 25.4901 41.8808C27.0993 41.404 28.1722 39.9735 28.1722 38.3046V34.1324Z" fill="url(#paint4_linear_400_393)"/>
<defs>
<linearGradient id="paint0_linear_400_393" x1="31.8675" y1="4.08463" x2="31.8675" y2="149.405" gradientUnits="userSpaceOnUse">
<stop stop-color="#FFB900"/>
<stop offset="0.17" stop-color="#EF8400"/>
<stop offset="0.31" stop-color="#E25C01"/>
<stop offset="0.43" stop-color="#DB4401"/>
<stop offset="0.5" stop-color="#D83B01"/>
<stop offset="1" stop-color="#D83B01"/>
</linearGradient>
<linearGradient id="paint1_linear_400_393" x1="25.5132" y1="5.32541" x2="-51.4413" y2="115.211" gradientUnits="userSpaceOnUse">
<stop stop-color="#800600"/>
<stop offset="0.6" stop-color="#C72127"/>
<stop offset="0.73" stop-color="#C13959"/>
<stop offset="0.85" stop-color="#BC4B81"/>
<stop offset="0.94" stop-color="#B95799"/>
<stop offset="1" stop-color="#B85BA2"/>
</linearGradient>
<linearGradient id="paint2_linear_400_393" x1="15.9545" y1="38.082" x2="116.417" y2="38.082" gradientUnits="userSpaceOnUse">
<stop stop-color="#F32B44"/>
<stop offset="0.6" stop-color="#A4070A"/>
<stop offset="1" stop-color="#A4070A"/>
</linearGradient>
<linearGradient id="paint3_linear_400_393" x1="25.8838" y1="4.78547" x2="9.58982" y2="28.0485" gradientUnits="userSpaceOnUse">
<stop stop-opacity="0.4"/>
<stop offset="1" stop-opacity="0"/>
</linearGradient>
<linearGradient id="paint4_linear_400_393" x1="32.5323" y1="38.6311" x2="-12.4477" y2="34.7048" gradientUnits="userSpaceOnUse">
<stop stop-opacity="0.4"/>
<stop offset="1" stop-opacity="0"/>
</linearGradient>
</defs>
</svg>
